<mxfile modified="2021-05-15T21:44:04.512Z" host="app.diagrams.net" agent="5.0 (X11; Linux x86_64) AppleWebKit/537.36 (KHTML, like Gecko) Chrome/90.0.4430.212 Safari/537.36" etag="_TEEKJIW13vSiZF9pnAB" version="14.6.13" type="github">
  <diagram id="f106602c-feb2-e66a-4537-3a34d633f6aa" name="Page-1">
    <mxGraphModel dx="2591" dy="1601" grid="1" gridSize="10" guides="1" tooltips="1" connect="1" arrows="1" fold="1" page="1" pageScale="1" pageWidth="1169" pageHeight="827" background="#ffffff" math="0" shadow="0">
      <root>
        <mxCell id="0" />
        <mxCell id="1" parent="0" />
        <mxCell id="14" value="" style="fillColor=#F6F6F6;strokeColor=none;shadow=0;gradientColor=none;fontSize=14;align=left;spacing=10;fontColor=#717171;9E9E9E;verticalAlign=top;spacingTop=-4;fontStyle=0;spacingLeft=40;html=1;" parent="1" vertex="1">
          <mxGeometry x="-240" y="-10" width="1210" height="1250" as="geometry" />
        </mxCell>
        <mxCell id="756" value="Users" style="rounded=1;absoluteArcSize=1;arcSize=2;html=1;strokeColor=none;gradientColor=none;shadow=0;dashed=0;strokeColor=none;fontSize=12;fontColor=#9E9E9E;align=left;verticalAlign=top;spacing=10;spacingTop=-4;fillColor=#F1F8E9;" parent="1" vertex="1">
          <mxGeometry x="1100" y="407.5" width="90" height="280" as="geometry" />
        </mxCell>
        <mxCell id="753" value="us-east1-d" style="rounded=1;absoluteArcSize=1;arcSize=2;html=1;strokeColor=none;gradientColor=none;shadow=0;dashed=0;strokeColor=none;fontSize=12;fontColor=#9E9E9E;align=left;verticalAlign=top;spacing=10;spacingTop=-4;fillColor=#E1F5FE;" parent="1" vertex="1">
          <mxGeometry x="150" y="10" width="560" height="540" as="geometry" />
        </mxCell>
        <mxCell id="vBc87_a1FCo5C6hP3Pv9-857" value="" style="edgeStyle=orthogonalEdgeStyle;rounded=0;orthogonalLoop=1;jettySize=auto;html=1;" edge="1" parent="1" source="743" target="vBc87_a1FCo5C6hP3Pv9-837">
          <mxGeometry relative="1" as="geometry">
            <Array as="points">
              <mxPoint x="292" y="479" />
              <mxPoint x="292" y="380" />
            </Array>
          </mxGeometry>
        </mxCell>
        <mxCell id="743" value="" style="shape=mxgraph.gcp2.doubleRect;strokeColor=#dddddd;fillColor=#ffffff;shadow=1;strokeWidth=1;fontSize=10;fontColor=#9E9E9E;align=center;html=1;" parent="1" vertex="1">
          <mxGeometry x="340.75" y="440" width="159.25" height="78" as="geometry" />
        </mxCell>
        <mxCell id="749" value="" style="strokeColor=#dddddd;fillColor=#ffffff;shadow=1;strokeWidth=1;rounded=1;absoluteArcSize=1;arcSize=2;labelPosition=center;verticalLabelPosition=middle;align=center;verticalAlign=bottom;spacingLeft=0;fontColor=#999999;fontSize=12;whiteSpace=wrap;spacingBottom=2;html=1;" parent="1" vertex="1">
          <mxGeometry x="1110" y="465" width="70" height="69" as="geometry" />
        </mxCell>
        <mxCell id="750" value="" style="dashed=0;connectable=0;html=1;fillColor=#757575;strokeColor=none;shape=mxgraph.gcp2.laptop;part=1;" parent="749" vertex="1">
          <mxGeometry x="0.5" width="50" height="33" relative="1" as="geometry">
            <mxPoint x="-25" y="18.5" as="offset" />
          </mxGeometry>
        </mxCell>
        <mxCell id="751" value="" style="strokeColor=#dddddd;fillColor=#ffffff;shadow=1;strokeWidth=1;rounded=1;absoluteArcSize=1;arcSize=2;labelPosition=center;verticalLabelPosition=middle;align=center;verticalAlign=bottom;spacingLeft=0;fontColor=#999999;fontSize=12;whiteSpace=wrap;spacingBottom=2;html=1;" parent="1" vertex="1">
          <mxGeometry x="1110" y="567" width="70" height="65" as="geometry" />
        </mxCell>
        <mxCell id="752" value="" style="dashed=0;connectable=0;html=1;fillColor=#757575;strokeColor=none;shape=mxgraph.gcp2.mobile_devices;part=1;" parent="751" vertex="1">
          <mxGeometry x="0.5" width="50" height="36.5" relative="1" as="geometry">
            <mxPoint x="-25" y="16.75" as="offset" />
          </mxGeometry>
        </mxCell>
        <mxCell id="773" value="3" style="shape=ellipse;fillColor=#ffffff;strokeColor=#BDBDBD;strokeWidth=2;shadow=0;gradientColor=none;fontColor=#757575;align=center;html=1;fontStyle=1;spacingTop=-1;" parent="1" vertex="1">
          <mxGeometry x="1040" y="-40" width="20" height="20" as="geometry" />
        </mxCell>
        <mxCell id="vBc87_a1FCo5C6hP3Pv9-796" value="&lt;font color=&quot;#000000&quot; style=&quot;font-family: &amp;#34;helvetica&amp;#34; ; font-size: 12px ; font-style: normal ; font-weight: 400 ; letter-spacing: normal ; text-align: left ; text-indent: 0px ; text-transform: none ; word-spacing: 0px ; background-color: rgb(248 , 249 , 250)&quot;&gt;Theater-Manager&lt;/font&gt;&lt;br style=&quot;color: rgb(153 , 153 , 153) ; font-family: &amp;#34;helvetica&amp;#34; ; font-size: 12px ; font-style: normal ; font-weight: 400 ; letter-spacing: normal ; text-align: left ; text-indent: 0px ; text-transform: none ; word-spacing: 0px ; background-color: rgb(248 , 249 , 250)&quot;&gt;&lt;font color=&quot;#999999&quot; face=&quot;helvetica&quot;&gt;Onboarding theater&lt;/font&gt;&lt;br&gt;&lt;hr style=&quot;color: rgb(153 , 153 , 153) ; font-family: &amp;#34;helvetica&amp;#34; ; font-size: 12px ; font-style: normal ; font-weight: 400 ; letter-spacing: normal ; text-align: left ; text-indent: 0px ; text-transform: none ; word-spacing: 0px ; background-color: rgb(248 , 249 , 250)&quot;&gt;&lt;span style=&quot;color: rgb(153 , 153 , 153) ; font-family: &amp;#34;helvetica&amp;#34; ; font-size: 11px&quot;&gt;Autoscalable&lt;/span&gt;" style="text;whiteSpace=wrap;html=1;" vertex="1" parent="1">
          <mxGeometry x="360" y="440" width="120" height="70.5" as="geometry" />
        </mxCell>
        <mxCell id="vBc87_a1FCo5C6hP3Pv9-800" value="" style="shape=mxgraph.gcp2.doubleRect;strokeColor=#dddddd;fillColor=#ffffff;shadow=1;strokeWidth=1;fontSize=10;fontColor=#9E9E9E;align=center;html=1;" vertex="1" parent="1">
          <mxGeometry x="340.75" y="332" width="158" height="78" as="geometry" />
        </mxCell>
        <mxCell id="vBc87_a1FCo5C6hP3Pv9-858" value="" style="edgeStyle=orthogonalEdgeStyle;rounded=0;orthogonalLoop=1;jettySize=auto;html=1;entryX=1.05;entryY=0.426;entryDx=0;entryDy=0;entryPerimeter=0;" edge="1" parent="1" target="vBc87_a1FCo5C6hP3Pv9-837">
          <mxGeometry relative="1" as="geometry">
            <mxPoint x="340" y="368" as="sourcePoint" />
            <Array as="points">
              <mxPoint x="218" y="373" />
              <mxPoint x="218" y="368" />
            </Array>
          </mxGeometry>
        </mxCell>
        <mxCell id="vBc87_a1FCo5C6hP3Pv9-801" value="&lt;font color=&quot;#000000&quot; style=&quot;font-family: &amp;#34;helvetica&amp;#34; ; font-size: 12px ; font-style: normal ; font-weight: 400 ; letter-spacing: normal ; text-align: left ; text-indent: 0px ; text-transform: none ; word-spacing: 0px ; background-color: rgb(248 , 249 , 250)&quot;&gt;Booking-System&lt;/font&gt;&lt;br style=&quot;color: rgb(153 , 153 , 153) ; font-family: &amp;#34;helvetica&amp;#34; ; font-size: 12px ; font-style: normal ; font-weight: 400 ; letter-spacing: normal ; text-align: left ; text-indent: 0px ; text-transform: none ; word-spacing: 0px ; background-color: rgb(248 , 249 , 250)&quot;&gt;&lt;font color=&quot;#999999&quot; face=&quot;helvetica&quot;&gt;Handle books&lt;/font&gt;&lt;br&gt;&lt;hr style=&quot;color: rgb(153 , 153 , 153) ; font-family: &amp;#34;helvetica&amp;#34; ; font-size: 12px ; font-style: normal ; font-weight: 400 ; letter-spacing: normal ; text-align: left ; text-indent: 0px ; text-transform: none ; word-spacing: 0px ; background-color: rgb(248 , 249 , 250)&quot;&gt;&lt;span style=&quot;color: rgb(153 , 153 , 153) ; font-family: &amp;#34;helvetica&amp;#34; ; font-size: 11px&quot;&gt;Autoscalable&lt;/span&gt;" style="text;whiteSpace=wrap;html=1;" vertex="1" parent="1">
          <mxGeometry x="360" y="337.5" width="110" height="70" as="geometry" />
        </mxCell>
        <mxCell id="vBc87_a1FCo5C6hP3Pv9-859" value="" style="edgeStyle=orthogonalEdgeStyle;rounded=0;orthogonalLoop=1;jettySize=auto;html=1;" edge="1" parent="1" source="vBc87_a1FCo5C6hP3Pv9-802">
          <mxGeometry relative="1" as="geometry">
            <mxPoint x="270" y="380" as="targetPoint" />
            <Array as="points">
              <mxPoint x="290" y="269" />
              <mxPoint x="290" y="380" />
            </Array>
          </mxGeometry>
        </mxCell>
        <mxCell id="vBc87_a1FCo5C6hP3Pv9-802" value="" style="shape=mxgraph.gcp2.doubleRect;strokeColor=#dddddd;fillColor=#ffffff;shadow=1;strokeWidth=1;fontSize=10;fontColor=#9E9E9E;align=center;html=1;" vertex="1" parent="1">
          <mxGeometry x="339.5" y="230" width="158" height="78" as="geometry" />
        </mxCell>
        <mxCell id="vBc87_a1FCo5C6hP3Pv9-803" value="&lt;font color=&quot;#000000&quot; style=&quot;font-family: &amp;#34;helvetica&amp;#34; ; font-size: 12px ; font-style: normal ; font-weight: 400 ; letter-spacing: normal ; text-align: left ; text-indent: 0px ; text-transform: none ; word-spacing: 0px ; background-color: rgb(248 , 249 , 250)&quot;&gt;Movie-Store&lt;/font&gt;&lt;br style=&quot;color: rgb(153 , 153 , 153) ; font-family: &amp;#34;helvetica&amp;#34; ; font-size: 12px ; font-style: normal ; font-weight: 400 ; letter-spacing: normal ; text-align: left ; text-indent: 0px ; text-transform: none ; word-spacing: 0px ; background-color: rgb(248 , 249 , 250)&quot;&gt;&lt;font color=&quot;#999999&quot; face=&quot;helvetica&quot;&gt;Manages movie&lt;/font&gt;&lt;br&gt;&lt;hr style=&quot;color: rgb(153 , 153 , 153) ; font-family: &amp;#34;helvetica&amp;#34; ; font-size: 12px ; font-style: normal ; font-weight: 400 ; letter-spacing: normal ; text-align: left ; text-indent: 0px ; text-transform: none ; word-spacing: 0px ; background-color: rgb(248 , 249 , 250)&quot;&gt;&lt;span style=&quot;color: rgb(153 , 153 , 153) ; font-family: &amp;#34;helvetica&amp;#34; ; font-size: 11px&quot;&gt;Autoscalable&lt;/span&gt;" style="text;whiteSpace=wrap;html=1;" vertex="1" parent="1">
          <mxGeometry x="360" y="234" width="110" height="70" as="geometry" />
        </mxCell>
        <mxCell id="vBc87_a1FCo5C6hP3Pv9-855" value="" style="edgeStyle=orthogonalEdgeStyle;rounded=0;orthogonalLoop=1;jettySize=auto;html=1;" edge="1" parent="1" source="vBc87_a1FCo5C6hP3Pv9-804" target="vBc87_a1FCo5C6hP3Pv9-837">
          <mxGeometry relative="1" as="geometry">
            <mxPoint x="259.5" y="171" as="targetPoint" />
            <Array as="points">
              <mxPoint x="290" y="171" />
              <mxPoint x="290" y="370" />
            </Array>
          </mxGeometry>
        </mxCell>
        <mxCell id="vBc87_a1FCo5C6hP3Pv9-804" value="" style="shape=mxgraph.gcp2.doubleRect;strokeColor=#dddddd;fillColor=#ffffff;shadow=1;strokeWidth=1;fontSize=10;fontColor=#9E9E9E;align=center;html=1;" vertex="1" parent="1">
          <mxGeometry x="339.5" y="132" width="158" height="78" as="geometry" />
        </mxCell>
        <mxCell id="vBc87_a1FCo5C6hP3Pv9-805" value="&lt;font face=&quot;helvetica&quot;&gt;Transaction-Manager&lt;/font&gt;&lt;br style=&quot;color: rgb(153 , 153 , 153) ; font-family: &amp;#34;helvetica&amp;#34; ; font-size: 12px ; font-style: normal ; font-weight: 400 ; letter-spacing: normal ; text-align: left ; text-indent: 0px ; text-transform: none ; word-spacing: 0px ; background-color: rgb(248 , 249 , 250)&quot;&gt;&lt;font color=&quot;#999999&quot; face=&quot;helvetica&quot;&gt;Manages transaction&lt;/font&gt;&lt;br&gt;&lt;hr style=&quot;color: rgb(153 , 153 , 153) ; font-family: &amp;#34;helvetica&amp;#34; ; font-size: 12px ; font-style: normal ; font-weight: 400 ; letter-spacing: normal ; text-align: left ; text-indent: 0px ; text-transform: none ; word-spacing: 0px ; background-color: rgb(248 , 249 , 250)&quot;&gt;&lt;span style=&quot;color: rgb(153 , 153 , 153) ; font-family: &amp;#34;helvetica&amp;#34; ; font-size: 11px&quot;&gt;Autoscalable&lt;/span&gt;" style="text;whiteSpace=wrap;html=1;" vertex="1" parent="1">
          <mxGeometry x="360" y="140" width="119.5" height="70" as="geometry" />
        </mxCell>
        <mxCell id="vBc87_a1FCo5C6hP3Pv9-860" value="" style="edgeStyle=orthogonalEdgeStyle;rounded=0;orthogonalLoop=1;jettySize=auto;html=1;" edge="1" parent="1" source="vBc87_a1FCo5C6hP3Pv9-806">
          <mxGeometry relative="1" as="geometry">
            <mxPoint x="290" y="310" as="targetPoint" />
            <Array as="points">
              <mxPoint x="290" y="79" />
              <mxPoint x="290" y="270" />
            </Array>
          </mxGeometry>
        </mxCell>
        <mxCell id="vBc87_a1FCo5C6hP3Pv9-806" value="" style="shape=mxgraph.gcp2.doubleRect;strokeColor=#dddddd;fillColor=#ffffff;shadow=1;strokeWidth=1;fontSize=10;fontColor=#9E9E9E;align=center;html=1;" vertex="1" parent="1">
          <mxGeometry x="339.5" y="40" width="158" height="78" as="geometry" />
        </mxCell>
        <mxCell id="vBc87_a1FCo5C6hP3Pv9-807" value="&lt;font face=&quot;helvetica&quot;&gt;Nootification&lt;/font&gt;&lt;br style=&quot;color: rgb(153 , 153 , 153) ; font-family: &amp;#34;helvetica&amp;#34; ; font-size: 12px ; font-style: normal ; font-weight: 400 ; letter-spacing: normal ; text-align: left ; text-indent: 0px ; text-transform: none ; word-spacing: 0px ; background-color: rgb(248 , 249 , 250)&quot;&gt;&lt;span style=&quot;color: rgb(153 , 153 , 153) ; font-family: &amp;#34;helvetica&amp;#34; ; font-size: 12px ; font-style: normal ; font-weight: 400 ; letter-spacing: normal ; text-align: left ; text-indent: 0px ; text-transform: none ; word-spacing: 0px ; background-color: rgb(248 , 249 , 250) ; display: inline ; float: none&quot;&gt;Handlle Notifications&lt;/span&gt;&lt;hr style=&quot;color: rgb(153 , 153 , 153) ; font-family: &amp;#34;helvetica&amp;#34; ; font-size: 12px ; font-style: normal ; font-weight: 400 ; letter-spacing: normal ; text-align: left ; text-indent: 0px ; text-transform: none ; word-spacing: 0px ; background-color: rgb(248 , 249 , 250)&quot;&gt;&lt;font style=&quot;color: rgb(153 , 153 , 153) ; font-family: &amp;#34;helvetica&amp;#34; ; font-style: normal ; font-weight: 400 ; letter-spacing: normal ; text-align: left ; text-indent: 0px ; text-transform: none ; word-spacing: 0px ; background-color: rgb(248 , 249 , 250) ; font-size: 11px&quot;&gt;Autoscalable&lt;/font&gt;" style="text;whiteSpace=wrap;html=1;" vertex="1" parent="1">
          <mxGeometry x="360" y="48" width="119.5" height="70" as="geometry" />
        </mxCell>
        <mxCell id="vBc87_a1FCo5C6hP3Pv9-808" value="" style="shape=mxgraph.gcp2.doubleRect;strokeColor=#dddddd;fillColor=#ffffff;shadow=1;strokeWidth=1;fontSize=10;fontColor=#9E9E9E;align=center;html=1;" vertex="1" parent="1">
          <mxGeometry x="540.75" y="346" width="158" height="78" as="geometry" />
        </mxCell>
        <mxCell id="vBc87_a1FCo5C6hP3Pv9-809" value="&lt;font face=&quot;helvetica&quot;&gt;Service Discovery&lt;/font&gt;&lt;br style=&quot;color: rgb(153 , 153 , 153) ; font-family: &amp;#34;helvetica&amp;#34; ; font-size: 12px ; font-style: normal ; font-weight: 400 ; letter-spacing: normal ; text-align: left ; text-indent: 0px ; text-transform: none ; word-spacing: 0px ; background-color: rgb(248 , 249 , 250)&quot;&gt;&lt;span style=&quot;color: rgb(153 , 153 , 153) ; font-family: &amp;#34;helvetica&amp;#34; ; font-size: 12px ; font-style: normal ; font-weight: 400 ; letter-spacing: normal ; text-align: left ; text-indent: 0px ; text-transform: none ; word-spacing: 0px ; background-color: rgb(248 , 249 , 250) ; display: inline ; float: none&quot;&gt;Compute Engine&lt;/span&gt;&lt;hr style=&quot;color: rgb(153 , 153 , 153) ; font-family: &amp;#34;helvetica&amp;#34; ; font-size: 12px ; font-style: normal ; font-weight: 400 ; letter-spacing: normal ; text-align: left ; text-indent: 0px ; text-transform: none ; word-spacing: 0px ; background-color: rgb(248 , 249 , 250)&quot;&gt;&lt;font style=&quot;color: rgb(153 , 153 , 153) ; font-family: &amp;#34;helvetica&amp;#34; ; font-style: normal ; font-weight: 400 ; letter-spacing: normal ; text-align: left ; text-indent: 0px ; text-transform: none ; word-spacing: 0px ; background-color: rgb(248 , 249 , 250) ; font-size: 11px&quot;&gt;Autoscaler&lt;/font&gt;" style="text;whiteSpace=wrap;html=1;" vertex="1" parent="1">
          <mxGeometry x="560" y="350" width="119.5" height="70" as="geometry" />
        </mxCell>
        <mxCell id="vBc87_a1FCo5C6hP3Pv9-818" value="" style="shape=mxgraph.gcp2.doubleRect;strokeColor=#dddddd;fillColor=#ffffff;shadow=1;strokeWidth=1;fontSize=10;fontColor=#9E9E9E;align=center;html=1;" vertex="1" parent="1">
          <mxGeometry x="540.75" y="440" width="158" height="78" as="geometry" />
        </mxCell>
        <mxCell id="vBc87_a1FCo5C6hP3Pv9-819" value="&lt;font face=&quot;helvetica&quot;&gt;Zuul Proxy&lt;/font&gt;&lt;br style=&quot;color: rgb(153 , 153 , 153) ; font-family: &amp;#34;helvetica&amp;#34; ; font-size: 12px ; font-style: normal ; font-weight: 400 ; letter-spacing: normal ; text-align: left ; text-indent: 0px ; text-transform: none ; word-spacing: 0px ; background-color: rgb(248 , 249 , 250)&quot;&gt;&lt;span style=&quot;color: rgb(153 , 153 , 153) ; font-family: &amp;#34;helvetica&amp;#34; ; font-size: 12px ; font-style: normal ; font-weight: 400 ; letter-spacing: normal ; text-align: left ; text-indent: 0px ; text-transform: none ; word-spacing: 0px ; background-color: rgb(248 , 249 , 250) ; display: inline ; float: none&quot;&gt;Compute Engine&lt;/span&gt;&lt;hr style=&quot;color: rgb(153 , 153 , 153) ; font-family: &amp;#34;helvetica&amp;#34; ; font-size: 12px ; font-style: normal ; font-weight: 400 ; letter-spacing: normal ; text-align: left ; text-indent: 0px ; text-transform: none ; word-spacing: 0px ; background-color: rgb(248 , 249 , 250)&quot;&gt;&lt;font style=&quot;color: rgb(153 , 153 , 153) ; font-family: &amp;#34;helvetica&amp;#34; ; font-style: normal ; font-weight: 400 ; letter-spacing: normal ; text-align: left ; text-indent: 0px ; text-transform: none ; word-spacing: 0px ; background-color: rgb(248 , 249 , 250) ; font-size: 11px&quot;&gt;Autoscaler&lt;/font&gt;" style="text;whiteSpace=wrap;html=1;" vertex="1" parent="1">
          <mxGeometry x="560" y="444" width="119.5" height="70" as="geometry" />
        </mxCell>
        <mxCell id="vBc87_a1FCo5C6hP3Pv9-835" value="" style="edgeStyle=orthogonalEdgeStyle;rounded=0;orthogonalLoop=1;jettySize=auto;html=1;" edge="1" parent="1" source="vBc87_a1FCo5C6hP3Pv9-820" target="753">
          <mxGeometry relative="1" as="geometry">
            <Array as="points">
              <mxPoint x="740" y="505" />
              <mxPoint x="740" y="450" />
            </Array>
          </mxGeometry>
        </mxCell>
        <mxCell id="vBc87_a1FCo5C6hP3Pv9-951" value="" style="edgeStyle=orthogonalEdgeStyle;rounded=0;orthogonalLoop=1;jettySize=auto;html=1;" edge="1" parent="1" source="vBc87_a1FCo5C6hP3Pv9-820" target="vBc87_a1FCo5C6hP3Pv9-926">
          <mxGeometry relative="1" as="geometry">
            <mxPoint x="860" y="704.5" as="targetPoint" />
            <Array as="points">
              <mxPoint x="737" y="590" />
              <mxPoint x="737" y="650" />
            </Array>
          </mxGeometry>
        </mxCell>
        <mxCell id="vBc87_a1FCo5C6hP3Pv9-820" value="global" style="rounded=1;absoluteArcSize=1;arcSize=2;html=1;strokeColor=none;gradientColor=none;shadow=0;dashed=0;strokeColor=none;fontSize=12;fontColor=#9E9E9E;align=left;verticalAlign=top;spacing=10;spacingTop=-4;fillColor=#E1F5FE;" vertex="1" parent="1">
          <mxGeometry x="780" y="440" width="180" height="240" as="geometry" />
        </mxCell>
        <mxCell id="vBc87_a1FCo5C6hP3Pv9-821" value="" style="edgeStyle=orthogonalEdgeStyle;rounded=0;html=1;labelBackgroundColor=none;startFill=1;startSize=4;endArrow=none;endFill=1;endSize=4;jettySize=auto;orthogonalLoop=1;strokeColor=#9E9E9E;strokeWidth=2;fontSize=12;fontColor=#000000;align=center;dashed=0;exitX=0;exitY=0.5;exitDx=0;exitDy=0;" edge="1" parent="1" source="756" target="vBc87_a1FCo5C6hP3Pv9-820">
          <mxGeometry relative="1" as="geometry">
            <mxPoint x="1040" y="223.5" as="sourcePoint" />
            <mxPoint x="860" y="100" as="targetPoint" />
            <Array as="points">
              <mxPoint x="1040" y="548" />
              <mxPoint x="1040" y="548" />
            </Array>
          </mxGeometry>
        </mxCell>
        <mxCell id="vBc87_a1FCo5C6hP3Pv9-822" value="&lt;div style=&quot;text-align: left&quot;&gt;&lt;span style=&quot;font-size: 12px&quot;&gt;&lt;font color=&quot;#999999&quot; face=&quot;helvetica&quot;&gt;CDN&lt;/font&gt;&lt;/span&gt;&lt;/div&gt;" style="strokeColor=#dddddd;fillColor=#ffffff;shadow=1;strokeWidth=1;rounded=1;absoluteArcSize=1;arcSize=2;fontSize=10;fontColor=#9E9E9E;align=center;html=1;" vertex="1" parent="1">
          <mxGeometry x="790" y="470" width="130" height="60" as="geometry" />
        </mxCell>
        <mxCell id="vBc87_a1FCo5C6hP3Pv9-823" value="&lt;span style=&quot;color: rgb(153 , 153 , 153) ; font-family: &amp;#34;helvetica&amp;#34; ; font-size: 12px ; font-style: normal ; font-weight: 400 ; letter-spacing: normal ; text-align: left ; text-indent: 0px ; text-transform: none ; word-spacing: 0px ; background-color: rgb(248 , 249 , 250) ; display: inline ; float: none&quot;&gt;Load&lt;/span&gt;&lt;br style=&quot;color: rgb(153 , 153 , 153) ; font-family: &amp;#34;helvetica&amp;#34; ; font-size: 12px ; font-style: normal ; font-weight: 400 ; letter-spacing: normal ; text-align: left ; text-indent: 0px ; text-transform: none ; word-spacing: 0px ; background-color: rgb(248 , 249 , 250)&quot;&gt;&lt;span style=&quot;color: rgb(153 , 153 , 153) ; font-family: &amp;#34;helvetica&amp;#34; ; font-size: 12px ; font-style: normal ; font-weight: 400 ; letter-spacing: normal ; text-align: left ; text-indent: 0px ; text-transform: none ; word-spacing: 0px ; background-color: rgb(248 , 249 , 250) ; display: inline ; float: none&quot;&gt;Balancing&lt;/span&gt;" style="strokeColor=#dddddd;fillColor=#ffffff;shadow=1;strokeWidth=1;rounded=1;absoluteArcSize=1;arcSize=2;fontSize=10;fontColor=#9E9E9E;align=center;html=1;" vertex="1" parent="1">
          <mxGeometry x="790" y="570" width="130" height="60" as="geometry" />
        </mxCell>
        <mxCell id="vBc87_a1FCo5C6hP3Pv9-824" value="" style="fillColor=#ffffff;strokeColor=#BDBDBD;strokeWidth=1;shadow=0;gradientColor=none;fontSize=10;fontColor=#9E9E9E;align=center;html=1;" vertex="1" parent="1">
          <mxGeometry x="250" y="2430" width="600" height="70" as="geometry" />
        </mxCell>
        <mxCell id="vBc87_a1FCo5C6hP3Pv9-825" value="1 Commit code" style="strokeColor=none;fillColor=none;fontColor=#757575;align=left;html=1;fontStyle=0;spacingLeft=5;fontSize=11;verticalAlign=top;whiteSpace=wrap;spacingRight=5;" vertex="1" parent="vBc87_a1FCo5C6hP3Pv9-824">
          <mxGeometry width="200" height="30" relative="1" as="geometry" />
        </mxCell>
        <mxCell id="vBc87_a1FCo5C6hP3Pv9-826" value="2 Detect code change" style="strokeColor=none;fillColor=none;fontColor=#757575;align=left;html=1;fontStyle=0;spacingLeft=5;fontSize=11;verticalAlign=top;whiteSpace=wrap;spacingRight=5;" vertex="1" parent="vBc87_a1FCo5C6hP3Pv9-824">
          <mxGeometry width="200" height="30" relative="1" as="geometry">
            <mxPoint y="30" as="offset" />
          </mxGeometry>
        </mxCell>
        <mxCell id="vBc87_a1FCo5C6hP3Pv9-827" value="3 Build immutable image" style="strokeColor=none;fillColor=none;fontColor=#757575;align=left;html=1;fontStyle=0;spacingLeft=5;fontSize=11;verticalAlign=top;whiteSpace=wrap;spacingRight=5;" vertex="1" parent="vBc87_a1FCo5C6hP3Pv9-824">
          <mxGeometry width="200" height="30" relative="1" as="geometry">
            <mxPoint x="200" as="offset" />
          </mxGeometry>
        </mxCell>
        <mxCell id="vBc87_a1FCo5C6hP3Pv9-828" value="4 Launch test instance from image" style="strokeColor=none;fillColor=none;fontColor=#757575;align=left;html=1;fontStyle=0;spacingLeft=5;fontSize=11;verticalAlign=top;whiteSpace=wrap;spacingRight=5;" vertex="1" parent="vBc87_a1FCo5C6hP3Pv9-824">
          <mxGeometry width="200" height="30" relative="1" as="geometry">
            <mxPoint x="200" y="30" as="offset" />
          </mxGeometry>
        </mxCell>
        <mxCell id="vBc87_a1FCo5C6hP3Pv9-829" value="5 Run tests" style="strokeColor=none;fillColor=none;fontColor=#757575;align=left;html=1;fontStyle=0;spacingLeft=5;fontSize=11;verticalAlign=top;whiteSpace=wrap;spacingRight=5;" vertex="1" parent="vBc87_a1FCo5C6hP3Pv9-824">
          <mxGeometry width="200" height="30" relative="1" as="geometry">
            <mxPoint x="400" as="offset" />
          </mxGeometry>
        </mxCell>
        <mxCell id="vBc87_a1FCo5C6hP3Pv9-830" value="6 Perform rolling update of image to autoscaler" style="strokeColor=none;fillColor=none;fontColor=#757575;align=left;html=1;fontStyle=0;spacingLeft=5;fontSize=11;verticalAlign=top;whiteSpace=wrap;spacingRight=5;" vertex="1" parent="vBc87_a1FCo5C6hP3Pv9-824">
          <mxGeometry width="200" height="30" relative="1" as="geometry">
            <mxPoint x="400" y="30" as="offset" />
          </mxGeometry>
        </mxCell>
        <mxCell id="vBc87_a1FCo5C6hP3Pv9-837" value="kafka" style="rounded=1;absoluteArcSize=1;arcSize=2;html=1;strokeColor=#9673a6;shadow=0;dashed=0;strokeColor=none;fontSize=12;align=left;verticalAlign=top;spacing=10;spacingTop=-4;fillColor=#e1d5e7;" vertex="1" parent="1">
          <mxGeometry x="172.5" y="270" width="90" height="230" as="geometry" />
        </mxCell>
        <mxCell id="vBc87_a1FCo5C6hP3Pv9-838" value="" style="points=[[0,0,0],[0.25,0,0],[0.5,0,0],[0.75,0,0],[1,0,0],[0,1,0],[0.25,1,0],[0.5,1,0],[0.75,1,0],[1,1,0],[0,0.25,0],[0,0.5,0],[0,0.75,0],[1,0.25,0],[1,0.5,0],[1,0.75,0]];outlineConnect=0;fontColor=#232F3E;gradientColor=#945DF2;gradientDirection=north;fillColor=#5A30B5;strokeColor=#ffffff;dashed=0;verticalLabelPosition=bottom;verticalAlign=top;align=center;html=1;fontSize=12;fontStyle=0;aspect=fixed;shape=mxgraph.aws4.resourceIcon;resIcon=mxgraph.aws4.managed_streaming_for_kafka;" vertex="1" parent="1">
          <mxGeometry x="192.5" y="308" width="50" height="50" as="geometry" />
        </mxCell>
        <mxCell id="vBc87_a1FCo5C6hP3Pv9-839" value="" style="points=[[0,0,0],[0.25,0,0],[0.5,0,0],[0.75,0,0],[1,0,0],[0,1,0],[0.25,1,0],[0.5,1,0],[0.75,1,0],[1,1,0],[0,0.25,0],[0,0.5,0],[0,0.75,0],[1,0.25,0],[1,0.5,0],[1,0.75,0]];outlineConnect=0;fontColor=#232F3E;gradientColor=#945DF2;gradientDirection=north;fillColor=#5A30B5;strokeColor=#ffffff;dashed=0;verticalLabelPosition=bottom;verticalAlign=top;align=center;html=1;fontSize=12;fontStyle=0;aspect=fixed;shape=mxgraph.aws4.resourceIcon;resIcon=mxgraph.aws4.managed_streaming_for_kafka;" vertex="1" parent="1">
          <mxGeometry x="192.5" y="375" width="50" height="50" as="geometry" />
        </mxCell>
        <mxCell id="vBc87_a1FCo5C6hP3Pv9-840" value="" style="points=[[0,0,0],[0.25,0,0],[0.5,0,0],[0.75,0,0],[1,0,0],[0,1,0],[0.25,1,0],[0.5,1,0],[0.75,1,0],[1,1,0],[0,0.25,0],[0,0.5,0],[0,0.75,0],[1,0.25,0],[1,0.5,0],[1,0.75,0]];outlineConnect=0;fontColor=#232F3E;gradientColor=#945DF2;gradientDirection=north;fillColor=#5A30B5;strokeColor=#ffffff;dashed=0;verticalLabelPosition=bottom;verticalAlign=top;align=center;html=1;fontSize=12;fontStyle=0;aspect=fixed;shape=mxgraph.aws4.resourceIcon;resIcon=mxgraph.aws4.managed_streaming_for_kafka;" vertex="1" parent="1">
          <mxGeometry x="192.5" y="438.5" width="50" height="50" as="geometry" />
        </mxCell>
        <mxCell id="vBc87_a1FCo5C6hP3Pv9-926" value="us-east1-b" style="rounded=1;absoluteArcSize=1;arcSize=2;html=1;strokeColor=none;gradientColor=none;shadow=0;dashed=0;strokeColor=none;fontSize=12;fontColor=#9E9E9E;align=left;verticalAlign=top;spacing=10;spacingTop=-4;fillColor=#E1F5FE;" vertex="1" parent="1">
          <mxGeometry x="144.5" y="610" width="560" height="580" as="geometry" />
        </mxCell>
        <mxCell id="vBc87_a1FCo5C6hP3Pv9-927" value="" style="edgeStyle=orthogonalEdgeStyle;rounded=0;orthogonalLoop=1;jettySize=auto;html=1;" edge="1" parent="1" source="vBc87_a1FCo5C6hP3Pv9-928" target="vBc87_a1FCo5C6hP3Pv9-944">
          <mxGeometry relative="1" as="geometry">
            <Array as="points">
              <mxPoint x="290" y="1099" />
              <mxPoint x="290" y="783" />
            </Array>
          </mxGeometry>
        </mxCell>
        <mxCell id="vBc87_a1FCo5C6hP3Pv9-928" value="" style="shape=mxgraph.gcp2.doubleRect;strokeColor=#dddddd;fillColor=#ffffff;shadow=1;strokeWidth=1;fontSize=10;fontColor=#9E9E9E;align=center;html=1;" vertex="1" parent="1">
          <mxGeometry x="340.75" y="1060" width="159.25" height="78" as="geometry" />
        </mxCell>
        <mxCell id="vBc87_a1FCo5C6hP3Pv9-929" value="&lt;font color=&quot;#000000&quot; style=&quot;font-family: &amp;#34;helvetica&amp;#34; ; font-size: 12px ; font-style: normal ; font-weight: 400 ; letter-spacing: normal ; text-align: left ; text-indent: 0px ; text-transform: none ; word-spacing: 0px ; background-color: rgb(248 , 249 , 250)&quot;&gt;Movie-Store&lt;/font&gt;&lt;br style=&quot;color: rgb(153 , 153 , 153) ; font-family: &amp;#34;helvetica&amp;#34; ; font-size: 12px ; font-style: normal ; font-weight: 400 ; letter-spacing: normal ; text-align: left ; text-indent: 0px ; text-transform: none ; word-spacing: 0px ; background-color: rgb(248 , 249 , 250)&quot;&gt;&lt;span style=&quot;color: rgb(153 , 153 , 153) ; font-family: &amp;#34;helvetica&amp;#34; ; font-size: 12px ; font-style: normal ; font-weight: 400 ; letter-spacing: normal ; text-align: left ; text-indent: 0px ; text-transform: none ; word-spacing: 0px ; background-color: rgb(248 , 249 , 250) ; display: inline ; float: none&quot;&gt;Compute Engine&lt;/span&gt;&lt;hr style=&quot;color: rgb(153 , 153 , 153) ; font-family: &amp;#34;helvetica&amp;#34; ; font-size: 12px ; font-style: normal ; font-weight: 400 ; letter-spacing: normal ; text-align: left ; text-indent: 0px ; text-transform: none ; word-spacing: 0px ; background-color: rgb(248 , 249 , 250)&quot;&gt;&lt;span style=&quot;color: rgb(153 , 153 , 153) ; font-family: &amp;#34;helvetica&amp;#34; ; font-size: 11px&quot;&gt;Autoscalable&lt;/span&gt;" style="text;whiteSpace=wrap;html=1;" vertex="1" parent="1">
          <mxGeometry x="360" y="1060" width="100" height="70.5" as="geometry" />
        </mxCell>
        <mxCell id="vBc87_a1FCo5C6hP3Pv9-930" value="" style="shape=mxgraph.gcp2.doubleRect;strokeColor=#dddddd;fillColor=#ffffff;shadow=1;strokeWidth=1;fontSize=10;fontColor=#9E9E9E;align=center;html=1;" vertex="1" parent="1">
          <mxGeometry x="340.75" y="952" width="158" height="78" as="geometry" />
        </mxCell>
        <mxCell id="vBc87_a1FCo5C6hP3Pv9-931" value="" style="edgeStyle=orthogonalEdgeStyle;rounded=0;orthogonalLoop=1;jettySize=auto;html=1;" edge="1" parent="1">
          <mxGeometry relative="1" as="geometry">
            <mxPoint x="340" y="988" as="sourcePoint" />
            <Array as="points">
              <mxPoint x="340" y="993" />
              <mxPoint x="290" y="993" />
              <mxPoint x="290" y="830" />
              <mxPoint x="267" y="830" />
            </Array>
            <mxPoint x="280" y="830" as="targetPoint" />
          </mxGeometry>
        </mxCell>
        <mxCell id="vBc87_a1FCo5C6hP3Pv9-932" value="&lt;font color=&quot;#000000&quot; style=&quot;font-family: &amp;#34;helvetica&amp;#34; ; font-size: 12px ; font-style: normal ; font-weight: 400 ; letter-spacing: normal ; text-align: left ; text-indent: 0px ; text-transform: none ; word-spacing: 0px ; background-color: rgb(248 , 249 , 250)&quot;&gt;Booking-System&lt;/font&gt;&lt;br style=&quot;color: rgb(153 , 153 , 153) ; font-family: &amp;#34;helvetica&amp;#34; ; font-size: 12px ; font-style: normal ; font-weight: 400 ; letter-spacing: normal ; text-align: left ; text-indent: 0px ; text-transform: none ; word-spacing: 0px ; background-color: rgb(248 , 249 , 250)&quot;&gt;&lt;span style=&quot;color: rgb(153 , 153 , 153) ; font-family: &amp;#34;helvetica&amp;#34; ; font-size: 12px ; font-style: normal ; font-weight: 400 ; letter-spacing: normal ; text-align: left ; text-indent: 0px ; text-transform: none ; word-spacing: 0px ; background-color: rgb(248 , 249 , 250) ; display: inline ; float: none&quot;&gt;Compute Engine&lt;/span&gt;&lt;hr style=&quot;color: rgb(153 , 153 , 153) ; font-family: &amp;#34;helvetica&amp;#34; ; font-size: 12px ; font-style: normal ; font-weight: 400 ; letter-spacing: normal ; text-align: left ; text-indent: 0px ; text-transform: none ; word-spacing: 0px ; background-color: rgb(248 , 249 , 250)&quot;&gt;&lt;span style=&quot;color: rgb(153 , 153 , 153) ; font-family: &amp;#34;helvetica&amp;#34; ; font-size: 11px&quot;&gt;Autoscalable&lt;/span&gt;" style="text;whiteSpace=wrap;html=1;" vertex="1" parent="1">
          <mxGeometry x="360" y="957.5" width="110" height="70" as="geometry" />
        </mxCell>
        <mxCell id="vBc87_a1FCo5C6hP3Pv9-933" value="" style="edgeStyle=orthogonalEdgeStyle;rounded=0;orthogonalLoop=1;jettySize=auto;html=1;" edge="1" parent="1" source="vBc87_a1FCo5C6hP3Pv9-934" target="vBc87_a1FCo5C6hP3Pv9-944">
          <mxGeometry relative="1" as="geometry">
            <mxPoint x="242.5" y="953" as="targetPoint" />
            <Array as="points">
              <mxPoint x="290" y="889" />
              <mxPoint x="290" y="830" />
            </Array>
          </mxGeometry>
        </mxCell>
        <mxCell id="vBc87_a1FCo5C6hP3Pv9-934" value="" style="shape=mxgraph.gcp2.doubleRect;strokeColor=#dddddd;fillColor=#ffffff;shadow=1;strokeWidth=1;fontSize=10;fontColor=#9E9E9E;align=center;html=1;" vertex="1" parent="1">
          <mxGeometry x="339.5" y="850" width="158" height="78" as="geometry" />
        </mxCell>
        <mxCell id="vBc87_a1FCo5C6hP3Pv9-935" value="&lt;font color=&quot;#000000&quot; style=&quot;font-family: &amp;#34;helvetica&amp;#34; ; font-size: 12px ; font-style: normal ; font-weight: 400 ; letter-spacing: normal ; text-align: left ; text-indent: 0px ; text-transform: none ; word-spacing: 0px ; background-color: rgb(248 , 249 , 250)&quot;&gt;Movie-Store&lt;/font&gt;&lt;br style=&quot;color: rgb(153 , 153 , 153) ; font-family: &amp;#34;helvetica&amp;#34; ; font-size: 12px ; font-style: normal ; font-weight: 400 ; letter-spacing: normal ; text-align: left ; text-indent: 0px ; text-transform: none ; word-spacing: 0px ; background-color: rgb(248 , 249 , 250)&quot;&gt;&lt;span style=&quot;color: rgb(153 , 153 , 153) ; font-family: &amp;#34;helvetica&amp;#34; ; font-size: 12px ; font-style: normal ; font-weight: 400 ; letter-spacing: normal ; text-align: left ; text-indent: 0px ; text-transform: none ; word-spacing: 0px ; background-color: rgb(248 , 249 , 250) ; display: inline ; float: none&quot;&gt;Compute Engine&lt;/span&gt;&lt;hr style=&quot;color: rgb(153 , 153 , 153) ; font-family: &amp;#34;helvetica&amp;#34; ; font-size: 12px ; font-style: normal ; font-weight: 400 ; letter-spacing: normal ; text-align: left ; text-indent: 0px ; text-transform: none ; word-spacing: 0px ; background-color: rgb(248 , 249 , 250)&quot;&gt;&lt;span style=&quot;color: rgb(153 , 153 , 153) ; font-family: &amp;#34;helvetica&amp;#34; ; font-size: 11px&quot;&gt;Autoscalable&lt;/span&gt;" style="text;whiteSpace=wrap;html=1;" vertex="1" parent="1">
          <mxGeometry x="369.5" y="858" width="110" height="70" as="geometry" />
        </mxCell>
        <mxCell id="vBc87_a1FCo5C6hP3Pv9-936" value="" style="edgeStyle=orthogonalEdgeStyle;rounded=0;orthogonalLoop=1;jettySize=auto;html=1;" edge="1" parent="1" source="vBc87_a1FCo5C6hP3Pv9-937" target="vBc87_a1FCo5C6hP3Pv9-944">
          <mxGeometry relative="1" as="geometry">
            <mxPoint x="259.5" y="791" as="targetPoint" />
            <Array as="points">
              <mxPoint x="290" y="791" />
              <mxPoint x="290" y="783" />
            </Array>
          </mxGeometry>
        </mxCell>
        <mxCell id="vBc87_a1FCo5C6hP3Pv9-937" value="" style="shape=mxgraph.gcp2.doubleRect;strokeColor=#dddddd;fillColor=#ffffff;shadow=1;strokeWidth=1;fontSize=10;fontColor=#9E9E9E;align=center;html=1;" vertex="1" parent="1">
          <mxGeometry x="339.5" y="752" width="158" height="78" as="geometry" />
        </mxCell>
        <mxCell id="vBc87_a1FCo5C6hP3Pv9-938" value="&lt;font face=&quot;helvetica&quot;&gt;Transaction-Manager&lt;/font&gt;&lt;br style=&quot;color: rgb(153 , 153 , 153) ; font-family: &amp;#34;helvetica&amp;#34; ; font-size: 12px ; font-style: normal ; font-weight: 400 ; letter-spacing: normal ; text-align: left ; text-indent: 0px ; text-transform: none ; word-spacing: 0px ; background-color: rgb(248 , 249 , 250)&quot;&gt;&lt;span style=&quot;color: rgb(153 , 153 , 153) ; font-family: &amp;#34;helvetica&amp;#34; ; font-size: 12px ; font-style: normal ; font-weight: 400 ; letter-spacing: normal ; text-align: left ; text-indent: 0px ; text-transform: none ; word-spacing: 0px ; background-color: rgb(248 , 249 , 250) ; display: inline ; float: none&quot;&gt;Compute Engine&lt;/span&gt;&lt;hr style=&quot;color: rgb(153 , 153 , 153) ; font-family: &amp;#34;helvetica&amp;#34; ; font-size: 12px ; font-style: normal ; font-weight: 400 ; letter-spacing: normal ; text-align: left ; text-indent: 0px ; text-transform: none ; word-spacing: 0px ; background-color: rgb(248 , 249 , 250)&quot;&gt;&lt;span style=&quot;color: rgb(153 , 153 , 153) ; font-family: &amp;#34;helvetica&amp;#34; ; font-size: 11px&quot;&gt;Autoscalable&lt;/span&gt;" style="text;whiteSpace=wrap;html=1;" vertex="1" parent="1">
          <mxGeometry x="360" y="760" width="119.5" height="70" as="geometry" />
        </mxCell>
        <mxCell id="vBc87_a1FCo5C6hP3Pv9-939" value="" style="edgeStyle=orthogonalEdgeStyle;rounded=0;orthogonalLoop=1;jettySize=auto;html=1;entryX=0.75;entryY=0;entryDx=0;entryDy=0;" edge="1" parent="1" source="vBc87_a1FCo5C6hP3Pv9-940" target="vBc87_a1FCo5C6hP3Pv9-944">
          <mxGeometry relative="1" as="geometry">
            <mxPoint x="259.5" y="699" as="targetPoint" />
            <Array as="points">
              <mxPoint x="290" y="699" />
              <mxPoint x="290" y="780" />
              <mxPoint x="240" y="780" />
            </Array>
          </mxGeometry>
        </mxCell>
        <mxCell id="vBc87_a1FCo5C6hP3Pv9-940" value="" style="shape=mxgraph.gcp2.doubleRect;strokeColor=#dddddd;fillColor=#ffffff;shadow=1;strokeWidth=1;fontSize=10;fontColor=#9E9E9E;align=center;html=1;" vertex="1" parent="1">
          <mxGeometry x="339.5" y="660" width="158" height="78" as="geometry" />
        </mxCell>
        <mxCell id="vBc87_a1FCo5C6hP3Pv9-941" value="&lt;font face=&quot;helvetica&quot;&gt;Notification&lt;/font&gt;&lt;br style=&quot;color: rgb(153 , 153 , 153) ; font-family: &amp;#34;helvetica&amp;#34; ; font-size: 12px ; font-style: normal ; font-weight: 400 ; letter-spacing: normal ; text-align: left ; text-indent: 0px ; text-transform: none ; word-spacing: 0px ; background-color: rgb(248 , 249 , 250)&quot;&gt;&lt;span style=&quot;color: rgb(153 , 153 , 153) ; font-family: &amp;#34;helvetica&amp;#34; ; font-size: 12px ; font-style: normal ; font-weight: 400 ; letter-spacing: normal ; text-align: left ; text-indent: 0px ; text-transform: none ; word-spacing: 0px ; background-color: rgb(248 , 249 , 250) ; display: inline ; float: none&quot;&gt;Compute Engine&lt;/span&gt;&lt;hr style=&quot;color: rgb(153 , 153 , 153) ; font-family: &amp;#34;helvetica&amp;#34; ; font-size: 12px ; font-style: normal ; font-weight: 400 ; letter-spacing: normal ; text-align: left ; text-indent: 0px ; text-transform: none ; word-spacing: 0px ; background-color: rgb(248 , 249 , 250)&quot;&gt;&lt;span style=&quot;color: rgb(153 , 153 , 153) ; font-family: &amp;#34;helvetica&amp;#34; ; font-size: 11px&quot;&gt;Autoscalable&lt;/span&gt;" style="text;whiteSpace=wrap;html=1;" vertex="1" parent="1">
          <mxGeometry x="369.5" y="668" width="110" height="70" as="geometry" />
        </mxCell>
        <mxCell id="vBc87_a1FCo5C6hP3Pv9-944" value="kafka" style="rounded=1;absoluteArcSize=1;arcSize=2;html=1;strokeColor=#9673a6;shadow=0;dashed=0;strokeColor=none;fontSize=12;align=left;verticalAlign=top;spacing=10;spacingTop=-4;fillColor=#e1d5e7;" vertex="1" parent="1">
          <mxGeometry x="172.5" y="668" width="90" height="230" as="geometry" />
        </mxCell>
        <mxCell id="vBc87_a1FCo5C6hP3Pv9-952" value="" style="shape=mxgraph.gcp2.doubleRect;strokeColor=#dddddd;fillColor=#ffffff;shadow=1;strokeWidth=1;fontSize=10;fontColor=#9E9E9E;align=center;html=1;" vertex="1" parent="1">
          <mxGeometry x="530.75" y="756" width="158" height="78" as="geometry" />
        </mxCell>
        <mxCell id="vBc87_a1FCo5C6hP3Pv9-953" value="" style="shape=mxgraph.gcp2.doubleRect;strokeColor=#dddddd;fillColor=#ffffff;shadow=1;strokeWidth=1;fontSize=10;fontColor=#9E9E9E;align=center;html=1;" vertex="1" parent="1">
          <mxGeometry x="530.75" y="650" width="158" height="78" as="geometry" />
        </mxCell>
        <mxCell id="vBc87_a1FCo5C6hP3Pv9-954" value="&lt;font face=&quot;helvetica&quot;&gt;Zuul Proxy&lt;/font&gt;&lt;br style=&quot;color: rgb(153 , 153 , 153) ; font-family: &amp;#34;helvetica&amp;#34; ; font-size: 12px ; font-style: normal ; font-weight: 400 ; letter-spacing: normal ; text-align: left ; text-indent: 0px ; text-transform: none ; word-spacing: 0px ; background-color: rgb(248 , 249 , 250)&quot;&gt;&lt;span style=&quot;color: rgb(153 , 153 , 153) ; font-family: &amp;#34;helvetica&amp;#34; ; font-size: 12px ; font-style: normal ; font-weight: 400 ; letter-spacing: normal ; text-align: left ; text-indent: 0px ; text-transform: none ; word-spacing: 0px ; background-color: rgb(248 , 249 , 250) ; display: inline ; float: none&quot;&gt;Compute Engine&lt;/span&gt;&lt;hr style=&quot;color: rgb(153 , 153 , 153) ; font-family: &amp;#34;helvetica&amp;#34; ; font-size: 12px ; font-style: normal ; font-weight: 400 ; letter-spacing: normal ; text-align: left ; text-indent: 0px ; text-transform: none ; word-spacing: 0px ; background-color: rgb(248 , 249 , 250)&quot;&gt;&lt;font style=&quot;color: rgb(153 , 153 , 153) ; font-family: &amp;#34;helvetica&amp;#34; ; font-style: normal ; font-weight: 400 ; letter-spacing: normal ; text-align: left ; text-indent: 0px ; text-transform: none ; word-spacing: 0px ; background-color: rgb(248 , 249 , 250) ; font-size: 11px&quot;&gt;Autoscaler&lt;/font&gt;" style="text;whiteSpace=wrap;html=1;" vertex="1" parent="1">
          <mxGeometry x="544.25" y="654" width="119.5" height="70" as="geometry" />
        </mxCell>
        <mxCell id="vBc87_a1FCo5C6hP3Pv9-955" value="&lt;font face=&quot;helvetica&quot;&gt;Service Discovery&lt;/font&gt;&lt;br style=&quot;color: rgb(153 , 153 , 153) ; font-family: &amp;#34;helvetica&amp;#34; ; font-size: 12px ; font-style: normal ; font-weight: 400 ; letter-spacing: normal ; text-align: left ; text-indent: 0px ; text-transform: none ; word-spacing: 0px ; background-color: rgb(248 , 249 , 250)&quot;&gt;&lt;span style=&quot;color: rgb(153 , 153 , 153) ; font-family: &amp;#34;helvetica&amp;#34; ; font-size: 12px ; font-style: normal ; font-weight: 400 ; letter-spacing: normal ; text-align: left ; text-indent: 0px ; text-transform: none ; word-spacing: 0px ; background-color: rgb(248 , 249 , 250) ; display: inline ; float: none&quot;&gt;Compute Engine&lt;/span&gt;&lt;hr style=&quot;color: rgb(153 , 153 , 153) ; font-family: &amp;#34;helvetica&amp;#34; ; font-size: 12px ; font-style: normal ; font-weight: 400 ; letter-spacing: normal ; text-align: left ; text-indent: 0px ; text-transform: none ; word-spacing: 0px ; background-color: rgb(248 , 249 , 250)&quot;&gt;&lt;font style=&quot;color: rgb(153 , 153 , 153) ; font-family: &amp;#34;helvetica&amp;#34; ; font-style: normal ; font-weight: 400 ; letter-spacing: normal ; text-align: left ; text-indent: 0px ; text-transform: none ; word-spacing: 0px ; background-color: rgb(248 , 249 , 250) ; font-size: 11px&quot;&gt;Autoscaler&lt;/font&gt;" style="text;whiteSpace=wrap;html=1;" vertex="1" parent="1">
          <mxGeometry x="540.75" y="760" width="119.5" height="70" as="geometry" />
        </mxCell>
        <mxCell id="vBc87_a1FCo5C6hP3Pv9-959" value="" style="points=[[0,0,0],[0.25,0,0],[0.5,0,0],[0.75,0,0],[1,0,0],[0,1,0],[0.25,1,0],[0.5,1,0],[0.75,1,0],[1,1,0],[0,0.25,0],[0,0.5,0],[0,0.75,0],[1,0.25,0],[1,0.5,0],[1,0.75,0]];outlineConnect=0;fontColor=#232F3E;gradientColor=#945DF2;gradientDirection=north;fillColor=#5A30B5;strokeColor=#ffffff;dashed=0;verticalLabelPosition=bottom;verticalAlign=top;align=center;html=1;fontSize=12;fontStyle=0;aspect=fixed;shape=mxgraph.aws4.resourceIcon;resIcon=mxgraph.aws4.managed_streaming_for_kafka;" vertex="1" parent="1">
          <mxGeometry x="192.5" y="704.75" width="50" height="50" as="geometry" />
        </mxCell>
        <mxCell id="vBc87_a1FCo5C6hP3Pv9-960" value="" style="points=[[0,0,0],[0.25,0,0],[0.5,0,0],[0.75,0,0],[1,0,0],[0,1,0],[0.25,1,0],[0.5,1,0],[0.75,1,0],[1,1,0],[0,0.25,0],[0,0.5,0],[0,0.75,0],[1,0.25,0],[1,0.5,0],[1,0.75,0]];outlineConnect=0;fontColor=#232F3E;gradientColor=#945DF2;gradientDirection=north;fillColor=#5A30B5;strokeColor=#ffffff;dashed=0;verticalLabelPosition=bottom;verticalAlign=top;align=center;html=1;fontSize=12;fontStyle=0;aspect=fixed;shape=mxgraph.aws4.resourceIcon;resIcon=mxgraph.aws4.managed_streaming_for_kafka;" vertex="1" parent="1">
          <mxGeometry x="192.5" y="771.75" width="50" height="50" as="geometry" />
        </mxCell>
        <mxCell id="vBc87_a1FCo5C6hP3Pv9-961" value="" style="points=[[0,0,0],[0.25,0,0],[0.5,0,0],[0.75,0,0],[1,0,0],[0,1,0],[0.25,1,0],[0.5,1,0],[0.75,1,0],[1,1,0],[0,0.25,0],[0,0.5,0],[0,0.75,0],[1,0.25,0],[1,0.5,0],[1,0.75,0]];outlineConnect=0;fontColor=#232F3E;gradientColor=#945DF2;gradientDirection=north;fillColor=#5A30B5;strokeColor=#ffffff;dashed=0;verticalLabelPosition=bottom;verticalAlign=top;align=center;html=1;fontSize=12;fontStyle=0;aspect=fixed;shape=mxgraph.aws4.resourceIcon;resIcon=mxgraph.aws4.managed_streaming_for_kafka;" vertex="1" parent="1">
          <mxGeometry x="192.5" y="835.25" width="50" height="50" as="geometry" />
        </mxCell>
        <mxCell id="vBc87_a1FCo5C6hP3Pv9-962" value="" style="rounded=1;absoluteArcSize=1;arcSize=2;html=1;strokeColor=none;gradientColor=none;shadow=0;dashed=0;strokeColor=none;fontSize=12;fontColor=#9E9E9E;align=left;verticalAlign=top;spacing=10;spacingTop=-4;fillColor=#E1F5FE;" vertex="1" parent="1">
          <mxGeometry x="-70" y="10" width="125.5" height="1180" as="geometry" />
        </mxCell>
        <mxCell id="vBc87_a1FCo5C6hP3Pv9-963" value="" style="aspect=fixed;html=1;points=[];align=center;image;fontSize=12;image=img/lib/mscae/Cache_Redis_Product.svg;" vertex="1" parent="1">
          <mxGeometry x="-40" y="92.8" width="30" height="25.2" as="geometry" />
        </mxCell>
        <mxCell id="vBc87_a1FCo5C6hP3Pv9-965" value="" style="aspect=fixed;html=1;points=[];align=center;image;fontSize=12;image=img/lib/mscae/Cache_Redis_Product.svg;" vertex="1" parent="1">
          <mxGeometry y="60" width="30" height="25.2" as="geometry" />
        </mxCell>
        <mxCell id="vBc87_a1FCo5C6hP3Pv9-966" value="" style="aspect=fixed;html=1;points=[];align=center;image;fontSize=12;image=img/lib/mscae/Cache_Redis_Product.svg;" vertex="1" parent="1">
          <mxGeometry y="132" width="30" height="25.2" as="geometry" />
        </mxCell>
        <mxCell id="vBc87_a1FCo5C6hP3Pv9-967" value="" style="aspect=fixed;html=1;points=[];align=center;image;fontSize=12;image=img/lib/mscae/Cache_Redis_Product.svg;" vertex="1" parent="1">
          <mxGeometry x="-40" y="132" width="30" height="25.2" as="geometry" />
        </mxCell>
        <mxCell id="vBc87_a1FCo5C6hP3Pv9-968" value="" style="aspect=fixed;html=1;points=[];align=center;image;fontSize=12;image=img/lib/mscae/Cache_Redis_Product.svg;" vertex="1" parent="1">
          <mxGeometry y="101.2" width="30" height="25.2" as="geometry" />
        </mxCell>
        <mxCell id="vBc87_a1FCo5C6hP3Pv9-969" value="" style="aspect=fixed;html=1;points=[];align=center;image;fontSize=12;image=img/lib/mscae/Cache_Redis_Product.svg;" vertex="1" parent="1">
          <mxGeometry x="-40" y="60" width="30" height="25.2" as="geometry" />
        </mxCell>
      </root>
    </mxGraphModel>
  </diagram>
</mxfile>
